<svg width="321" height="69" viewBox="0 0 321 69" fill="none" xmlns="http://www.w3.org/2000/svg">
<path d="M50 26.3252H33.0588V9.46201H16.8235C16.8235 18.778 9.2941 26.3252 0 26.3252V42.5988H16.8235V59.462H33.0588C33.0588 50.146 40.7059 42.5988 50 42.5988V26.3252Z" fill="url(#paint0_linear_1243_47)"/>
<path d="M86.647 3.7309V54H73V3.7309H86.647ZM89.164 54V16.2982H102.026V23.4655H102.419C103.204 21.1091 104.546 19.2436 106.444 17.8691C108.342 16.4945 110.601 15.8073 113.219 15.8073C115.87 15.8073 118.152 16.5109 120.067 17.9182C121.981 19.3091 123.135 21.1582 123.528 23.4655H123.921C124.559 21.1582 125.917 19.3091 127.995 17.9182C130.073 16.5109 132.511 15.8073 135.31 15.8073C138.926 15.8073 141.855 16.9691 144.097 19.2927C146.355 21.6164 147.484 24.7091 147.484 28.5709V54H133.935V32.0073C133.935 30.3545 133.518 29.0618 132.683 28.1291C131.849 27.18 130.728 26.7055 129.321 26.7055C127.93 26.7055 126.825 27.18 126.007 28.1291C125.205 29.0618 124.804 30.3545 124.804 32.0073V54H111.844V32.0073C111.844 30.3545 111.427 29.0618 110.592 28.1291C109.758 27.18 108.637 26.7055 107.23 26.7055C106.297 26.7055 105.495 26.9182 104.824 27.3436C104.153 27.7691 103.63 28.3827 103.253 29.1845C102.893 29.97 102.713 30.9109 102.713 32.0073V54H89.164ZM160.525 54.5891C158.119 54.5891 155.992 54.1964 154.143 53.4109C152.31 52.6091 150.87 51.3982 149.823 49.7782C148.776 48.1582 148.252 46.0964 148.252 43.5927C148.252 41.5309 148.604 39.7718 149.308 38.3155C150.011 36.8427 150.993 35.64 152.253 34.7073C153.513 33.7745 154.978 33.0627 156.647 32.5718C158.332 32.0809 160.149 31.7618 162.096 31.6145C164.207 31.4509 165.9 31.2545 167.177 31.0255C168.469 30.78 169.402 30.4445 169.975 30.0191C170.548 29.5773 170.834 28.9964 170.834 28.2764V28.1782C170.834 27.1964 170.458 26.4436 169.705 25.92C168.952 25.3964 167.987 25.1345 166.809 25.1345C165.516 25.1345 164.46 25.4209 163.642 25.9936C162.84 26.55 162.358 27.4091 162.194 28.5709H149.725C149.889 26.28 150.617 24.1691 151.909 22.2382C153.219 20.2909 155.125 18.7364 157.629 17.5745C160.132 16.3964 163.258 15.8073 167.005 15.8073C169.705 15.8073 172.127 16.1264 174.27 16.7645C176.414 17.3864 178.239 18.2618 179.744 19.3909C181.249 20.5036 182.395 21.8127 183.18 23.3182C183.982 24.8073 184.383 26.4273 184.383 28.1782V54H171.718V48.6982H171.423C170.67 50.1055 169.754 51.2427 168.674 52.11C167.61 52.9773 166.391 53.6073 165.017 54C163.659 54.3927 162.161 54.5891 160.525 54.5891ZM164.943 46.0473C165.974 46.0473 166.939 45.8345 167.839 45.4091C168.756 44.9836 169.5 44.37 170.073 43.5682C170.646 42.7664 170.932 41.7927 170.932 40.6473V37.5055C170.572 37.6527 170.188 37.7918 169.779 37.9227C169.386 38.0536 168.96 38.1764 168.502 38.2909C168.06 38.4055 167.586 38.5118 167.079 38.61C166.588 38.7082 166.072 38.7982 165.532 38.88C164.485 39.0436 163.626 39.3136 162.955 39.69C162.3 40.05 161.809 40.5 161.482 41.04C161.171 41.5636 161.016 42.1527 161.016 42.8073C161.016 43.8545 161.384 44.6564 162.12 45.2127C162.857 45.7691 163.798 46.0473 164.943 46.0473ZM204.873 68.924C201.093 68.924 197.853 68.384 195.153 67.304C192.47 66.24 190.383 64.767 188.894 62.885C187.422 61.02 186.595 58.876 186.415 56.455H199.473C199.604 57.256 199.932 57.903 200.455 58.394C200.979 58.885 201.65 59.236 202.468 59.449C203.302 59.678 204.235 59.793 205.266 59.793C207.017 59.793 208.465 59.367 209.611 58.516C210.772 57.665 211.353 56.127 211.353 53.9018V47.52H210.961C210.47 48.7964 209.717 49.8845 208.702 50.7845C207.688 51.6682 206.469 52.3473 205.045 52.8218C203.622 53.28 202.059 53.5091 200.357 53.5091C197.673 53.5091 195.202 52.8873 192.944 51.6436C190.702 50.4 188.902 48.4282 187.544 45.7282C186.202 43.0282 185.532 39.5018 185.532 35.1491C185.532 30.6 186.235 26.9018 187.642 24.0545C189.066 21.2073 190.899 19.1209 193.141 17.7955C195.399 16.47 197.772 15.8073 200.259 15.8073C202.124 15.8073 203.761 16.1345 205.168 16.7891C206.575 17.4273 207.753 18.2864 208.702 19.3664C209.652 20.43 210.372 21.6 210.862 22.8764H211.157V16.2982H224.706V53.9018C224.706 57.093 223.88 59.801 222.227 62.026C220.591 64.268 218.283 65.978 215.305 67.156C212.327 68.335 208.85 68.924 204.873 68.924ZM205.364 43.8873C206.608 43.8873 207.672 43.5436 208.555 42.8564C209.455 42.1527 210.142 41.1545 210.617 39.8618C211.108 38.5527 211.353 36.9818 211.353 35.1491C211.353 33.2836 211.108 31.6882 210.617 30.3627C210.142 29.0209 209.455 27.9982 208.555 27.2945C207.672 26.5745 206.608 26.2145 205.364 26.2145C204.121 26.2145 203.057 26.5745 202.173 27.2945C201.306 27.9982 200.635 29.0209 200.161 30.3627C199.702 31.6882 199.473 33.2836 199.473 35.1491C199.473 37.0145 199.702 38.6018 200.161 39.9109C200.635 41.2036 201.306 42.1936 202.173 42.8809C203.057 43.5518 204.121 43.8873 205.364 43.8873ZM224.308 54L230.592 16.2982H244.141L237.857 54H224.308ZM237.956 12.3709C236.123 12.3709 234.642 11.7655 233.513 10.5545C232.384 9.3273 231.966 7.8709 232.261 6.1855C232.556 4.4673 233.456 3.0109 234.961 1.8164C236.466 0.605499 238.136 0 239.968 0C241.817 0 243.29 0.605499 244.386 1.8164C245.483 3.0109 245.892 4.4673 245.614 6.1855C245.352 7.8709 244.468 9.3273 242.963 10.5545C241.474 11.7655 239.805 12.3709 237.956 12.3709ZM257.304 32.7927V54H243.755V16.2982H256.617V23.4655H257.01C257.828 21.0764 259.268 19.2027 261.33 17.8445C263.408 16.4864 265.83 15.8073 268.595 15.8073C271.263 15.8073 273.578 16.4209 275.542 17.6482C277.522 18.8591 279.052 20.5282 280.132 22.6555C281.228 24.7827 281.768 27.2127 281.752 29.9455V54H268.203V32.7927C268.219 30.9273 267.744 29.4627 266.779 28.3991C265.83 27.3355 264.504 26.8036 262.803 26.8036C261.69 26.8036 260.716 27.0491 259.882 27.54C259.064 28.0145 258.434 28.7018 257.992 29.6018C257.55 30.4855 257.321 31.5491 257.304 32.7927ZM302.359 54.6873C298.333 54.6873 294.864 53.9182 291.951 52.38C289.055 50.8255 286.821 48.6 285.25 45.7036C283.696 42.7909 282.919 39.3055 282.919 35.2473C282.919 31.3527 283.704 27.9491 285.275 25.0364C286.846 22.1236 289.063 19.8573 291.927 18.2373C294.79 16.6173 298.17 15.8073 302.064 15.8073C304.911 15.8073 307.489 16.2491 309.796 17.1327C312.103 18.0164 314.075 19.3009 315.711 20.9864C317.348 22.6555 318.608 24.6845 319.491 27.0736C320.375 29.4627 320.817 32.1545 320.817 35.1491V38.2909H287.14V30.8291H308.348C308.331 29.7491 308.053 28.8 307.513 27.9818C306.99 27.1473 306.278 26.5009 305.378 26.0427C304.494 25.5682 303.488 25.3309 302.359 25.3309C301.262 25.3309 300.256 25.5682 299.34 26.0427C298.423 26.5009 297.687 27.1391 297.13 27.9573C296.59 28.7755 296.304 29.7327 296.271 30.8291V38.88C296.271 40.0909 296.525 41.1709 297.032 42.12C297.54 43.0691 298.268 43.8136 299.217 44.3536C300.166 44.8936 301.311 45.1636 302.653 45.1636C303.586 45.1636 304.437 45.0327 305.206 44.7709C305.991 44.5091 306.662 44.1327 307.219 43.6418C307.775 43.1345 308.184 42.5291 308.446 41.8255H320.817C320.391 44.4436 319.385 46.7182 317.798 48.6491C316.21 50.5636 314.108 52.0527 311.49 53.1164C308.888 54.1636 305.844 54.6873 302.359 54.6873Z" fill="#201B21"/>
<defs>
<linearGradient id="paint0_linear_1243_47" x1="31.6327" y1="53.962" x2="-8.16761" y2="2.18103" gradientUnits="userSpaceOnUse">
<stop stop-color="#F30E4F"/>
<stop offset="1" stop-color="#201B21"/>
</linearGradient>
</defs>
</svg>
